#!OML:ASF F:\VICON\USERDATA\INSTALL\rory3\rory3.ASF
:FULLY-SPECIFIED
:DEGREES
985
root 3.00485 23.8352 0.524217 -167.097 -24.3032 178.257
lowerback 18.3458 -1.96271 -6.91603
upperback 2.54648 -4.18475 1.14068
thorax -6.93246 -1.97743 6.16703
lowerneck -13.5441 2.07932 -12.2504
upperneck 39.4352 1.70607 2.00212
head 16.2547 -2.14494 2.97011
rclavicle 2.98177e-014 1.63003e-014
rhumerus -1.58122 21.8456 -74.5683
rradius 99.2796
rwrist 49.4834
rhand -18.1432 -1.40502
rfingers 7.12502
rthumb 8.13212 -31.2285
lclavicle 2.98177e-014 1.63003e-014
lhumerus 66.5199 -19.8073 61.4251
lradius 63.5175
lwrist -18.0488
lhand 3.52389 38.5356
lfingers 7.12502
lthumb 28.9611 66.306
rfemur -17.8074 -3.20084 24.4022
rtibia 9.72485
rfoot -3.62472 -12.7045
rtoes 12.9087
lfemur -81.1179 8.59048 -30.0178
ltibia 94.449
lfoot 5.52243 -32.3062
ltoes 17.3399
986
root 3.04135 23.7772 0.538565 -167.159 -24.0292 178.457
lowerback 18.0461 -1.96778 -6.83834
upperback 2.51722 -4.14124 1.22156
thorax -6.80679 -1.96013 6.18034
lowerneck -13.8292 2.19816 -12.8558
upperneck 39.7354 1.86382 2.57549
head 16.444 -2.12547 3.36204
rclavicle -3.27995e-014 -1.98785e-015
rhumerus -1.0834 22.1845 -74.6107
rradius 99.1881
rwrist 49.5886
rhand -17.6009 -1.72561
rfingers 7.12502
rthumb 8.65546 -31.5282
lclavicle -3.27995e-014 -1.98785e-015
lhumerus 66.476 -19.1832 61.8085
lradius 63.2333
lwrist -17.9446
lhand 4.59504 37.8139
lfingers 7.12502
lthumb 29.9836 65.4041
rfemur -18.4396 -2.87019 24.7896
rtibia 10.6742
rfoot -4.7719 -12.8228
rtoes 12.4598
lfemur -81.9107 9.30438 -30.0048
ltibia 95.1149
lfoot 6.2119 -32.4612
ltoes 17.4182
987
root 3.07644 23.7232 0.551025 -167.314 -23.8076 178.557
lowerback 17.8762 -1.97415 -6.80977
upperback 2.5378 -4.12916 1.24539
thorax -6.69395 -1.96112 6.17382
lowerneck -13.4042 2.22673 -12.608
upperneck 39.1996 1.99896 2.13587
head 16.0605 -2.04052 3.13377
rclavicle -6.2816e-014 3.18055e-014
rhumerus -0.679268 22.3762 -74.8257
rradius 98.9903
rwrist 49.8067
rhand -17.0384 -1.91607
rfingers 7.12502
rthumb 9.19827 -31.6955
lclavicle -6.2816e-014 3.18055e-014
lhumerus 66.5024 -18.6855 62.0783
lradius 62.8121
lwrist -17.8887
lhand 4.69157 37.9335
lfingers 7.12502
lthumb 30.0757 65.507
rfemur -18.767 -2.73889 25.0907
rtibia 11.3773
rfoot -5.66099 -12.7915
rtoes 12.0918
lfemur -82.462 9.93889 -30.0702
ltibia 95.6852
lfoot 6.92732 -32.4689
ltoes 17.5664
988
root 3.11472 23.6798 0.562946 -167.5 -23.6115 178.544
lowerback 17.849 -2.00124 -6.88455
upperback 2.56931 -4.18167 1.22432
thorax -6.63356 -1.99063 6.20107
lowerneck -13.1701 2.29451 -12.4309
upperneck 38.8244 2.19687 1.77506
head 15.8053 -1.94632 2.96985
rclavicle 4.51241e-014 6.36111e-015
rhumerus -0.20692 22.562 -75.1136
rradius 98.5693
rwrist 50.0038
rhand -16.9255 -1.70308
rfingers 7.12502
rthumb 9.30727 -31.4776
lclavicle 4.51241e-014 6.36111e-015
lhumerus 66.4563 -18.1671 62.4282
lradius 62.3347
lwrist -17.9423
lhand 4.61539 38.4653
lfingers 7.12502
lthumb 30.0031 66.052
rfemur -18.9673 -2.67927 25.2879
rtibia 11.96
rfoot -6.35353 -12.7764
rtoes 12.4946
lfemur -82.8505 10.5446 -30.2685
ltibia 96.1721
lfoot 7.28521 -32.4872
ltoes 17.3285
989
root 3.15301 23.6481 0.576925 -167.719 -23.4256 178.618
lowerback 17.873 -2.03969 -6.86304
upperback 2.56138 -4.23234 1.20336
thorax -6.65085 -2.01504 6.17895
lowerneck -13.1872 2.34761 -12.3133
upperneck 38.9287 2.2385 1.68651
head 15.8618 -1.94355 2.9155
rclavicle 1.8487e-014 2.94201e-014
rhumerus 0.342121 22.7807 -75.3995
rradius 97.9567
rwrist 50.1992
rhand -17.5986 -1.63364
rfingers 7.12502
rthumb 8.65771 -31.4361
lclavicle 1.8487e-014 2.94201e-014
lhumerus 66.3027 -17.7193 62.6471
lradius 61.9968
lwrist -17.9677
lhand 4.64872 38.4646
lfingers 7.12502
lthumb 30.0349 66.0456
rfemur -19.157 -2.58036 25.5456
rtibia 12.4914
rfoot -6.80469 -12.7924
rtoes 12.0882
lfemur -83.1683 11.1866 -30.4205
ltibia 96.5782
lfoot 7.60275 -32.5198
ltoes 16.9811
990
root 3.18784 23.6137 0.588485 -167.983 -23.2367 178.799
lowerback 17.8593 -2.07967 -6.75313
upperback 2.53605 -4.2615 1.2038
thorax -6.67441 -2.02902 6.12328
lowerneck -13.1934 2.37129 -12.0733
upperneck 39.2514 2.11373 1.64669
head 16.0424 -2.01435 2.83317
rclavicle 1.03964e-013 1.98785e-015
rhumerus 0.808071 22.9838 -75.782
rradius 97.2891
rwrist 50.3973
rhand -18.6126 -2.11365
rfingers 7.12502
rthumb 7.67908 -31.9542
lclavicle 1.03964e-013 1.98785e-015
lhumerus 66.0992 -17.3343 62.8011
lradius 61.647
lwrist -17.9199
lhand 4.63613 38.1991
lfingers 7.12502
lthumb 30.0228 65.7823
rfemur -19.2843 -2.43691 25.8368
rtibia 12.9346
rfoot -7.16119 -12.6402
rtoes 11.4322
lfemur -83.4659 11.85 -30.4611
ltibia 96.9699
lfoot 7.9337 -32.4973
ltoes 17.1267
991
root 3.2192 23.5804 0.599193 -168.241 -23.0384 178.809
lowerback 17.8383 -2.05028 -6.74788
upperback 2.63284 -4.23136 1.15153
thorax -6.56748 -2.02738 6.05128
lowerneck -13.6434 2.5558 -12.5679
upperneck 39.6603 2.42482 2.07527
head 16.3155 -1.94181 3.16716
rclavicle -9.22361e-014 3.61788e-014
rhumerus 1.48592 23.0099 -76.0116
rradius 96.6245
rwrist 50.4247
rhand -19.2217 -2.8038
rfingers 7.12502
rthumb 7.09117 -32.665
lclavicle -9.22361e-014 3.61788e-014
lhumerus 66.1303 -17.0075 62.939
lradius 61.3142
lwrist -17.9294
lhand 4.82633 38.2487
lfingers 7.12502
lthumb 30.2043 65.7988
rfemur -19.3088 -2.37283 25.9246
rtibia 13.3414
rfoot -7.43547 -12.3494
rtoes 10.5043
lfemur -83.6066 12.4567 -30.6444
ltibia 97.3084
lfoot 8.00895 -32.4466
ltoes 17.2721
992
root 3.25175 23.5564 0.61042 -168.486 -22.8645 178.833
lowerback 17.8037 -1.96387 -6.78223
upperback 2.67763 -4.12895 1.0967
thorax -6.51727 -1.98305 5.98534
lowerneck -13.6264 2.70169 -12.5845
upperneck 39.8805 2.51992 2.28701
head 16.4058 -1.90421 3.27993
rclavicle -1.64991e-014 -2.14687e-014
rhumerus 2.02177 22.9606 -76.2094
rradius 96.0212
rwrist 50.2183
rhand -19.3334 -3.05784
rfingers 7.12502
rthumb 6.9833 -32.9226
lclavicle -1.64991e-014 -2.14687e-014
lhumerus 66.1264 -16.8666 63.0325
lradius 61.0582
lwrist -18.1566
lhand 5.5414 38.2036
lfingers 7.12502
lthumb 30.8862 65.6267
rfemur -19.3149 -2.3024 26.0294
rtibia 13.6865
rfoot -7.60228 -12.1326
rtoes 9.60802
lfemur -83.7186 13.0233 -30.7943
ltibia 97.5701
lfoot 8.08771 -32.3285
ltoes 17.0402
993
root 3.2828 23.5403 0.624249 -168.708 -22.7168 178.948
lowerback 17.7832 -2.0493 -6.6918
upperback 2.73148 -4.22264 1.1528
thorax -6.43622 -2.03812 6.01044
lowerneck -13.5676 2.82822 -12.4681
upperneck 39.8634 2.72224 2.0868
head 16.3696 -1.83785 3.19907
rclavicle -2.98177e-014 2.38542e-014
rhumerus 2.79102 23.4618 -76.2792
rradius 95.4534
rwrist 49.966
rhand -19.3727 -3.2433
rfingers 7.12502
rthumb 6.94543 -33.1094
lclavicle -2.98177e-014 2.38542e-014
lhumerus 65.948 -16.2872 63.1185
lradius 60.7786
lwrist -18.3492
lhand 6.09876 38.0641
lfingers 7.12502
lthumb 31.4174 65.3852
rfemur -19.3341 -2.33402 26.2408
rtibia 13.9243
rfoot -7.55604 -11.8626
rtoes 8.51325
lfemur -83.8938 13.543 -30.8303
ltibia 97.7688
lfoot 8.33104 -32.2063
ltoes 16.6577
994
root 3.31132 23.5368 0.638957 -168.851 -22.5188 178.934
lowerback 17.7965 -2.05919 -6.63739
upperback 2.68244 -4.22777 1.10232
thorax -6.50382 -2.03593 5.92923
lowerneck -13.3725 2.80776 -12.3573
upperneck 39.881 2.62948 1.9326
head 16.3475 -1.89569 3.0892
rclavicle -7.65321e-014 3.22031e-014
rhumerus 3.23684 23.7767 -76.4553
rradius 94.8734
rwrist 49.8296
rhand -19.4052 -3.63266
rfingers 7.12502
rthumb 6.91401 -33.4998
lclavicle -7.65321e-014 3.22031e-014
lhumerus 65.7596 -16.0198 63.1593
lradius 60.4405
lwrist -18.2531
lhand 6.22886 37.8
lfingers 7.12502
lthumb 31.5414 65.0969
rfemur -19.3161 -2.46572 26.2982
rtibia 14.0382
rfoot -7.42675 -11.4018
rtoes 7.75209
lfemur -83.9874 14.0476 -30.9948
ltibia 97.8716
lfoot 8.78322 -31.9896
ltoes 16.9192
995
root 3.33619 23.5355 0.651054 -169.006 -22.3121 178.967
lowerback 17.7297 -2.02005 -6.60056
upperback 2.67953 -4.16456 1.0925
thorax -6.48325 -2.00679 5.8797
lowerneck -13.4192 2.79987 -12.638
upperneck 40.0349 2.58814 2.14526
head 16.4337 -1.94845 3.22606
rclavicle 7.95139e-014 2.42517e-014
rhumerus 3.7089 24.0266 -76.5583
rradius 94.1724
rwrist 49.7199
rhand -19.6127 -3.96767
rfingers 7.12502
rthumb 6.71368 -33.8412
lclavicle 7.95139e-014 2.42517e-014
lhumerus 65.6372 -15.7971 63.1177
lradius 60.1329
lwrist -18.0974
lhand 6.2585 37.7061
lfingers 7.12502
lthumb 31.5696 64.9974
rfemur -19.187 -2.55462 26.3456
rtibia 13.9914
rfoot -7.30868 -10.871
rtoes 8.49346
lfemur -84.048 14.5508 -31.1007
ltibia 97.959
lfoot 9.43552 -31.7139
ltoes 17.6832
996
root 3.36011 23.5357 0.663739 -169.162 -22.2003 179.053
lowerback 17.678 -2.05579 -6.55004
upperback 2.69086 -4.19269 1.17518
thorax -6.43587 -2.02387 5.94206
lowerneck -13.5439 2.87748 -12.9796
upperneck 40.1449 2.73448 2.35702
head 16.4952 -1.9266 3.40548
rclavicle 2.98177e-015 5.84427e-014
rhumerus 4.12203 24.4608 -76.686
rradius 93.5011
rwrist 49.6435
rhand -20.0643 -4.17608
rfingers 7.12502
rthumb 6.27777 -34.0631
lclavicle 2.98177e-015 5.84427e-014
lhumerus 65.3707 -15.4055 63.1263
lradius 59.8702
lwrist -18.1558
lhand 6.33819 37.4169
lfingers 7.12502
lthumb 31.6455 64.6933
rfemur -18.9797 -2.66129 26.4534
rtibia 13.7383
rfoot -7.04978 -10.4853
rtoes 9.31527
lfemur -84.1718 14.952 -31.163
ltibia 98.0309
lfoot 9.77686 -31.5553
ltoes 17.5121
997
root 3.38536 23.5389 0.67742 -169.286 -22.1617 179.099
lowerback 17.7423 -2.08911 -6.45905
upperback 2.62246 -4.21807 1.20486
thorax -6.54523 -2.02845 5.9358
lowerneck -13.3046 2.83272 -12.4732
upperneck 40.0308 2.64306 1.84101
head 16.4122 -1.957 3.06404
rclavicle -1.66979e-014 5.92378e-014
rhumerus 4.19772 24.7301 -76.9487
rradius 92.8925
rwrist 49.7203
rhand -20.6186 -4.24911
rfingers 7.12502
rthumb 5.74264 -34.1513
lclavicle -1.66979e-014 5.92378e-014
lhumerus 65.07 -15.1766 63.1244
lradius 59.5473
lwrist -18.2174
lhand 6.44023 37.1626
lfingers 7.12502
lthumb 31.7427 64.4198
rfemur -18.7744 -2.96152 26.591
rtibia 13.3769
rfoot -6.63267 -10.1016
rtoes 9.773
lfemur -84.2879 15.2517 -31.2169
ltibia 98.0622
lfoot 10.0436 -31.4737
ltoes 16.9644
